<svg width="1044" height="80" viewBox="0 0 1044 80" fill="none" xmlns="http://www.w3.org/2000/svg">
<path d="M959.571 40L969.85 44.6448L979.492 49.2235L988.484 53.6708L996.813 57.9236L1004.47 61.9213L1011.44 65.6068L1017.71 68.9279L1023.28 71.8372L1028.13 74.2933L1032.27 76.2613L1035.68 77.7131L1038.37 78.628L1040.31 78.9931L1041.53 78.8031L1042 78.0607L1041.73 76.7766L1040.73 74.969L1038.99 72.6636L1036.51 69.8932L1033.31 66.6973L1029.37 63.1214L1024.72 59.2164L1019.35 55.0378L1013.27 50.6451L1006.5 46.1009L999.038 41.4699L990.898 36.818L982.091 32.2113L972.631 27.7155L962.53 23.3946L951.803 19.3101L940.466 15.52L928.533 12.0785L916.024 9.03437L902.954 6.43106L889.343 4.30559L875.209 2.68823L860.574 1.60199L845.458 1.06234L829.882 1.07696L813.869 1.64564L797.44 2.76028L780.621 4.40503L763.434 6.55646L745.904 9.18395L728.055 12.2501L709.914 15.7113L691.506 19.5182L672.857 23.6167L653.993 27.9483L634.942 32.4516L615.73 37.0622L596.386 41.7148L576.935 46.3428L557.407 50.8806L537.828 55.2636L518.226 59.4292L498.631 63.3183L479.068 66.8754L459.566 70.05L440.153 72.7968L420.856 75.0768L401.703 76.8575L382.721 78.1134L363.937 78.8269L345.378 78.9877L327.069 78.5935L309.038 77.6499L291.309 76.1704L273.908 74.176L256.859 71.6951L240.187 68.763L223.916 65.4215L208.068 61.7181L192.667 57.7056L177.733 53.4411L163.289 48.9852L149.355 44.4014L135.949 39.755L123.093 35.112L110.804 30.5386L99.0983 26.0999L87.994 21.8591L77.5065 17.8765L67.6507 14.2088L58.4405 10.9083L49.889 8.02187L42.0084 5.59064L34.81 3.64923L28.3038 2.22526L22.4992 1.339L17.4045 1.00308L13.0268 1.22227L9.37236 1.99345L6.44641 3.30565L4.25308 5.14018L2.79551 7.47094L2.07575 10.2647L2.09484 13.4818L2.85273 17.0764L4.34837 20.9972L6.57961 25.1886L9.5433 29.5908L13.2352 34.1412L17.6501 38.775L22.7817 43.4262L28.6227 48.0286L35.1649 52.5168L42.3988 56.8268L50.3143 60.8972L58.9001 64.6702L68.144 68.092L78.0328 71.114L88.5526 73.693L99.6883 75.7924L111.424 77.3823L123.743 78.4401L136.629 78.9507L150.061 78.9069L164.023 78.3092L178.493 77.1662L193.451 75.4941L208.876 73.3168L224.746 70.6652L241.039 67.5772L257.731 64.0965L274.798 60.2729L292.216 56.1606L309.962 51.8184L328.008 47.3079L346.33 42.6933L364.902 38.0405L383.697 33.4155L402.688 28.8842L421.85 24.5112L441.153 20.3587L460.571 16.4857L480.077 12.9475L499.642 9.79438L519.239 7.07121L538.84 4.81678L558.417 3.06317L577.942 1.83534L597.388 1.15079L616.726 1.01924L635.93 1.44258L654.972 2.41478L673.825 3.92199L692.463 5.94276L710.858 8.44834L728.984 11.403L746.817 14.7648L764.33 18.4858L781.499 22.5131L798.299 26.7892L814.706 31.2534L830.697 35.8422L846.25 40.4901L861.342 45.131L875.952 49.6989L890.059 54.1287L903.642 58.3574L916.684 62.3248L929.164 65.9745L941.066 69.2543L952.372 72.1178L963.067 74.524L973.135 76.4388L982.562 77.8349L991.334 78.6925L999.44 78.9992L1006.87 78.7508L1013.6 77.9508L1019.64 76.6106L1024.98 74.7492L1029.59 72.3932L1033.49 69.5761L1036.66 66.338L1039.1 62.7249L1040.8 58.7884L1041.77 54.5844L1041.99 50.1728L1041.48 45.6164L1040.23 40.9801L1038.25 36.3298L1035.53 31.7317L1032.08 27.2514L1027.9 22.9525L1023.01 18.8963L1017.4 15.1405L1011.09 11.7385L1004.09 8.73889L996.399 6.18424L988.036 4.11096L979.01 2.54855L969.334 1.51925L959.023 1.03772L948.091 1.1108L936.554 1.73747L924.427 2.9088L911.728 4.60811L898.476 6.81121L884.689 9.48676L870.386 12.5967L855.588 16.0966L840.316 19.9369L824.592 24.0627L808.438 28.4154L791.876 32.933L774.931 37.5512L757.627 42.2042L739.988 46.8259L722.039 51.3504L703.806 55.7133L685.315 59.8526L666.591 63.7093L647.662 67.2284L628.555 70.36L609.296 73.0594L589.913 75.2883L570.433 77.0147L550.885 78.2143L531.295 78.87L511.693 78.9723L492.105 78.5198L472.559 77.5191L453.084 75.9842L433.706 73.9372L414.455 71.407L395.356 68.4298L376.436 65.0479L357.724 61.3094L339.246 57.2676L321.027 52.98L303.093 48.5076L285.471 43.9141L268.184 39.2649L251.259 34.6262L234.718 30.0639L218.585 25.6431L202.884 21.4267L187.636 17.4747L172.863 13.8433L158.587 10.5842L144.826 7.74386L131.602 5.36268L118.933 3.47455L106.836 2.10636L95.3293 1.27758L84.4289 1L74.1503 1.27758L64.5082 2.10636L55.5162 3.47455L47.187 5.36268L39.5326 7.74386L32.5638 10.5842L26.2906 13.8433L20.7217 17.4747L15.8652 21.4267L11.728 25.6431L8.31587 30.0639L5.63372 34.6262L3.68535 39.2649L2.47354 43.9141L2 48.5076L2.26541 52.98L3.26939 57.2676L5.01052 61.3094L7.48631 65.0479L10.6933 68.4298L14.6268 71.407L19.2814 73.9372L24.6503 75.9842L30.726 77.5191L37.4998 78.5198L44.9621 78.9723L53.1024 78.87L61.9089 78.2143L71.3693 77.0147L81.47 75.2883L92.1968 73.0594L103.534 70.36L115.467 67.2284L127.976 63.7093L141.046 59.8526L154.657 55.7133L168.791 51.3504L183.426 46.8259L198.542 42.2042L214.118 37.5512L230.131 32.933L246.56 28.4154L263.379 24.0627L280.566 19.9369L298.097 16.0966L315.945 12.5967L334.086 9.48676L352.494 6.81121L371.143 4.60811L390.007 2.9088L409.058 1.73747L428.27 1.1108L447.614 1.03772L467.065 1.51925L486.593 2.54855L506.172 4.11096L525.774 6.18424L545.37 8.73889L564.932 11.7385L584.434 15.1405L603.847 18.8963L623.144 22.9525L642.297 27.2514L661.279 31.7317L680.063 36.3298L698.622 40.9801L716.931 45.6164L734.962 50.1728L752.691 54.5844L770.092 58.7884L787.141 62.7249L803.813 66.338L820.084 69.5761L835.932 72.3932L851.333 74.7492L866.267 76.6106L880.711 77.9508L894.645 78.7508L908.05 78.9992L920.907 78.6925L933.197 77.8349L944.902 76.4388L956.006 74.524L966.493 72.1178L976.349 69.2543L985.56 65.9745L994.111 62.3248L1001.99 58.3574L1009.19 54.1287L1015.7 49.6989L1021.5 45.131L1026.6 40.4901L1030.97 35.8422L1034.63 31.2534L1037.55 26.7892L1039.75 22.5131L1041.2 18.4858L1041.92 14.7648L1041.91 11.403L1041.15 8.44834L1039.65 5.94276L1037.42 3.92199L1034.46 2.41478L1030.76 1.44258L1026.35 1.01924L1021.22 1.15079L1015.38 1.83534L1008.84 3.06317L1001.6 4.81678L993.686 7.07121L985.1 9.79438L975.856 12.9475L965.967 16.4857L955.447 20.3587L944.312 24.5112L932.576 28.8842L920.257 33.4155L907.371 38.0405L893.939 42.6933L879.977 47.3079L865.507 51.8184L850.549 56.1606L835.124 60.2729L819.254 64.0965L802.961 67.5772L786.269 70.6652L769.202 73.3168L751.783 75.4941L734.038 77.1662L715.992 78.3092L697.67 78.9069L679.098 78.9507L660.303 78.4401L641.312 77.3823L622.15 75.7924L602.847 73.693L583.429 71.114L563.923 68.092L544.358 64.6702L524.761 60.8972L505.16 56.8268L485.583 52.5168L466.058 48.0286L446.612 43.4262L427.274 38.775L408.07 34.1412L389.028 29.5908L370.175 25.1886L351.537 20.9972L333.142 17.0764L315.016 13.4818L297.183 10.2647L279.67 7.47094L262.501 5.14018L245.701 3.30565L229.294 1.99345L213.303 1.22227L197.75 1.00308L182.658 1.339L168.048 2.22526L153.942 3.64923L140.358 5.59064L127.316 8.02187L114.836 10.9083L102.934 14.2088L91.6277 17.8765L80.9329 21.8591L70.8649 26.0999L61.438 30.5386L52.6655 35.112L44.56 39.755L37.133 44.4014L30.395 48.9852L24.3556 53.4411L19.0234 57.7056L14.4059 61.7181L10.5098 65.4215L7.3405 68.763L4.90257 71.6951L3.19947 74.176L2.23361 76.1704L2.00636 77.6499L2.51806 78.5935L3.76796 78.9877L5.7543 78.8269L8.47426 78.1134L11.924 76.8575L16.0985 75.0768L20.992 72.7968L26.5974 70.05L32.9068 66.8754L39.9113 63.3183L47.6008 59.4292L55.9645 55.2636L64.9904 50.8806L74.6657 46.3428L84.9768 41.7148L95.9089 37.0622L107.446 32.4516L119.573 27.9483L132.272 23.6167L145.524 19.5182L159.311 15.7113L173.614 12.2501L188.412 9.18395L203.684 6.55646L219.408 4.40503L235.562 2.76028L252.124 1.64564L269.069 1.07696L286.373 1.06234L304.012 1.60199L321.961 2.68823L340.194 4.30559L358.685 6.43106L377.409 9.03437L396.338 12.0785L415.445 15.52L434.704 19.3101L454.087 23.3946L473.567 27.7155L493.115 32.2113L512.705 36.818L532.307 41.4699L551.895 46.1009L571.441 50.6451L590.916 55.0378L610.294 59.2164L629.545 63.1214L648.644 66.6973L667.563 69.8932L686.276 72.6636L704.754 74.969L722.973 76.7766L740.907 78.0607L758.529 78.8031L775.816 78.9931L792.741 78.628L809.282 77.7131L825.415 76.2613L841.116 74.2933L856.364 71.8372L871.137 68.9279L885.413 65.6068L899.174 61.9213L912.398 57.9236L925.067 53.6708L937.164 49.2235L948.671 44.6448L959.571 40ZM959.571 40L969.85 35.3552L979.492 30.7765L988.484 26.3292L996.813 22.0764L1004.47 18.0787L1011.44 14.3932L1017.71 11.0721L1023.28 8.16277L1028.13 5.70666L1032.27 3.73872L1035.68 2.28694L1038.37 1.372L1040.31 1.00693L1041.53 1.19691L1042 1.93925L1041.73 3.22337L1040.73 5.031L1038.99 7.33641L1036.51 10.1068L1033.31 13.3027L1029.37 16.8786L1024.72 20.7836L1019.35 24.9622L1013.27 29.3549L1006.5 33.8991L999.038 38.5301L990.898 43.182L982.091 47.7887L972.631 52.2845L962.53 56.6054L951.803 60.6899L940.466 64.48L928.533 67.9215L916.024 70.9656L902.954 73.5689L889.343 75.6944L875.209 77.3118L860.574 78.398L845.458 78.9376L829.882 78.923L813.869 78.3544L797.44 77.2397L780.621 75.595L763.434 73.4435L745.904 70.816L728.055 67.7499L709.914 64.2887L691.506 60.4818L672.857 56.3833L653.993 52.0517L634.942 47.5484L615.73 42.9377L596.386 38.2852L576.935 33.6571L557.407 29.1193L537.828 24.7364L518.226 20.5708L498.631 16.6817L479.068 13.1246L459.566 9.94998L440.153 7.20316L420.856 4.9232L401.703 3.14254L382.721 1.88654L363.937 1.17308L345.378 1.01232L327.069 1.40653L309.038 2.35012L291.309 3.82964L273.908 5.82404L256.859 8.30493L240.187 11.237L223.916 14.5785L208.068 18.2818L192.667 22.2944L177.733 26.5589L163.289 31.0148L149.355 35.5986L135.949 40.245L123.093 44.888L110.804 49.4614L99.0983 53.9001L87.994 58.1409L77.5065 62.1235L67.6507 65.7912L58.4405 69.0917L49.889 71.9781L42.0084 74.4094L34.81 76.3508L28.3038 77.7747L22.4992 78.661L17.4045 78.9969L13.0268 78.7777L9.37236 78.0065L6.44641 76.6943L4.25308 74.8598L2.79551 72.529L2.07575 69.7352L2.09484 66.5182L2.85273 62.9236L4.34837 59.0027L6.57961 54.8114L9.5433 50.4092L13.2352 45.8588L17.6501 41.225L22.7817 36.5738L28.6227 31.9714L35.1649 27.4832L42.3988 23.1732L50.3143 19.1028L58.9001 15.3298L68.144 11.9079L78.0328 8.88602L88.5526 6.30699L99.6883 4.20757L111.424 2.61765L123.743 1.55986L136.629 1.04926L150.061 1.09311L164.023 1.6908L178.493 2.83381L193.451 4.50587L208.876 6.68318L224.746 9.33475L241.039 12.4228L257.731 15.9035L274.798 19.7271L292.216 23.8394L309.962 28.1816L328.008 32.6921L346.33 37.3067L364.902 41.9595L383.697 46.5845L402.688 51.1157L421.85 55.4888L441.153 59.6413L460.571 63.5142L480.077 67.0525L499.642 70.2056L519.239 72.9288L538.84 75.1832L558.417 76.9368L577.942 78.1647L597.388 78.8492L616.726 78.9808L635.93 78.5574L654.972 77.5852L673.825 76.078L692.463 74.0572L710.858 71.5517L728.984 68.597L746.817 65.2352L764.33 61.5142L781.499 57.4869L798.299 53.2108L814.706 48.7466L830.697 44.1578L846.25 39.5099L861.342 34.869L875.952 30.3011L890.059 25.8713L903.642 21.6425L916.684 17.6751L929.164 14.0255L941.066 10.7457L952.372 7.88223L963.067 5.47598L973.135 3.56117L982.562 2.16506L991.334 1.30753L999.44 1.00077L1006.87 1.24916L1013.6 2.04916L1019.64 3.38938L1024.98 5.25075L1029.59 7.60676L1033.49 10.4239L1036.66 13.662L1039.1 17.2751L1040.8 21.2116L1041.77 25.4156L1041.99 29.8272L1041.48 34.3836L1040.23 39.0199L1038.25 43.6702L1035.53 48.2683L1032.08 52.7486L1027.9 57.0475L1023.01 61.1037L1017.4 64.8595L1011.09 68.2615L1004.09 71.2611L996.399 73.8158L988.036 75.889L979.01 77.4515L969.334 78.4807L959.023 78.9623L948.091 78.8892L936.554 78.2625L924.427 77.0912L911.728 75.3919L898.476 73.1888L884.689 70.5132L870.386 67.4033L855.588 63.9034L840.316 60.0631L824.592 55.9373L808.438 51.5846L791.876 47.067L774.931 42.4488L757.627 37.7958L739.988 33.1741L722.039 28.6496L703.806 24.2866L685.315 20.1474L666.591 16.2907L647.662 12.7715L628.555 9.63997L609.296 6.94056L589.913 4.71174L570.433 2.98525L550.885 1.78565L531.295 1.13003L511.693 1.02771L492.105 1.48015L472.559 2.48092L453.084 4.01576L433.706 6.06283L414.455 8.59299L395.356 11.5702L376.436 14.9521L357.724 18.6906L339.246 22.7324L321.027 27.02L303.093 31.4924L285.471 36.0859L268.184 40.7351L251.259 45.3738L234.718 49.9361L218.585 54.3569L202.884 58.5733L187.636 62.5253L172.863 66.1567L158.587 69.4158L144.826 72.2561L131.602 74.6373L118.933 76.5254L106.836 77.8936L95.3293 78.7224L84.4289 79L74.1503 78.7224L64.5082 77.8936L55.5162 76.5254L47.187 74.6373L39.5326 72.2561L32.5638 69.4158L26.2906 66.1567L20.7217 62.5253L15.8652 58.5733L11.728 54.3569L8.31587 49.9361L5.63372 45.3738L3.68535 40.7351L2.47354 36.0859L2 31.4924L2.26541 27.02L3.26939 22.7324L5.01052 18.6906L7.48631 14.9521L10.6933 11.5702L14.6268 8.59299L19.2814 6.06283L24.6503 4.01576L30.726 2.48092L37.4998 1.48015L44.9621 1.02771L53.1024 1.13003L61.9089 1.78565L71.3693 2.98525L81.47 4.71174L92.1968 6.94056L103.534 9.63997L115.467 12.7715L127.976 16.2907L141.046 20.1474L154.657 24.2866L168.791 28.6496L183.426 33.1741L198.542 37.7958L214.118 42.4488L230.131 47.067L246.56 51.5846L263.379 55.9373L280.566 60.0631L298.097 63.9034L315.945 67.4033L334.086 70.5132L352.494 73.1888L371.143 75.3919L390.007 77.0912L409.058 78.2625L428.27 78.8892L447.614 78.9623L467.065 78.4807L486.593 77.4515L506.172 75.889L525.774 73.8158L545.37 71.2611L564.932 68.2615L584.434 64.8595L603.847 61.1037L623.144 57.0475L642.297 52.7486L661.279 48.2683L680.063 43.6702L698.622 39.0199L716.931 34.3836L734.962 29.8272L752.691 25.4156L770.092 21.2116L787.141 17.2751L803.813 13.662L820.084 10.4239L835.932 7.60676L851.333 5.25075L866.267 3.38938L880.711 2.04916L894.645 1.24916L908.05 1.00077L920.907 1.30753L933.197 2.16506L944.902 3.56117L956.006 5.47598L966.493 7.88223L976.349 10.7457L985.56 14.0255L994.111 17.6751L1001.99 21.6425L1009.19 25.8713L1015.7 30.3011L1021.5 34.869L1026.6 39.5099L1030.97 44.1578L1034.63 48.7466L1037.55 53.2108L1039.75 57.4869L1041.2 61.5142L1041.92 65.2352L1041.91 68.597L1041.15 71.5517L1039.65 74.0572L1037.42 76.078L1034.46 77.5852L1030.76 78.5574L1026.35 78.9808L1021.22 78.8492L1015.38 78.1647L1008.84 76.9368L1001.6 75.1832L993.686 72.9288L985.1 70.2056L975.856 67.0525L965.967 63.5142L955.447 59.6413L944.312 55.4888L932.576 51.1157L920.257 46.5845L907.371 41.9595L893.939 37.3067L879.977 32.6921L865.507 28.1816L850.549 23.8394L835.124 19.7271L819.254 15.9035L802.961 12.4228L786.269 9.33475L769.202 6.68318L751.783 4.50587L734.038 2.83381L715.992 1.6908L697.67 1.09311L679.098 1.04926L660.303 1.55986L641.312 2.61765L622.15 4.20757L602.847 6.30699L583.429 8.88602L563.923 11.9079L544.358 15.3298L524.761 19.1028L505.16 23.1732L485.583 27.4832L466.058 31.9714L446.612 36.5738L427.274 41.225L408.07 45.8588L389.028 50.4092L370.175 54.8114L351.537 59.0027L333.142 62.9236L315.016 66.5182L297.183 69.7352L279.67 72.529L262.501 74.8598L245.701 76.6943L229.294 78.0065L213.303 78.7777L197.75 78.9969L182.658 78.661L168.048 77.7747L153.942 76.3508L140.358 74.4094L127.316 71.9781L114.836 69.0917L102.934 65.7912L91.6277 62.1235L80.9329 58.1409L70.8649 53.9001L61.438 49.4614L52.6655 44.888L44.56 40.245L37.133 35.5986L30.395 31.0148L24.3556 26.5589L19.0234 22.2944L14.4059 18.2818L10.5098 14.5785L7.3405 11.237L4.90257 8.30493L3.19947 5.82404L2.23361 3.82964L2.00636 2.35012L2.51806 1.40653L3.76796 1.01232L5.7543 1.17308L8.47426 1.88654L11.924 3.14254L16.0985 4.9232L20.992 7.20316L26.5974 9.94998L32.9068 13.1246L39.9113 16.6817L47.6008 20.5708L55.9645 24.7364L64.9904 29.1193L74.6657 33.6571L84.9768 38.2852L95.9089 42.9377L107.446 47.5484L119.573 52.0517L132.272 56.3833L145.524 60.4818L159.311 64.2887L173.614 67.7499L188.412 70.816L203.684 73.4435L219.408 75.595L235.562 77.2397L252.124 78.3544L269.069 78.923L286.373 78.9376L304.012 78.398L321.961 77.3118L340.194 75.6944L358.685 73.5689L377.409 70.9656L396.338 67.9215L415.445 64.48L434.704 60.6899L454.087 56.6054L473.567 52.2845L493.115 47.7887L512.705 43.182L532.307 38.5301L551.895 33.8991L571.441 29.3549L590.916 24.9622L610.294 20.7836L629.545 16.8786L648.644 13.3027L667.563 10.1068L686.276 7.33641L704.754 5.031L722.973 3.22337L740.907 1.93925L758.529 1.19691L775.816 1.00693L792.741 1.372L809.282 2.28694L825.415 3.73872L841.116 5.70666L856.364 8.16277L871.137 11.0721L885.413 14.3932L899.174 18.0787L912.398 22.0764L925.067 26.3292L937.164 30.7765L948.671 35.3552L959.571 40Z" stroke="#7D32F9" stroke-width="2"/>
</svg>
